<svg width="49" height="48" viewBox="0 0 49 48" fill="none" xmlns="http://www.w3.org/2000/svg">
<path d="M24.5 40.5C24.5 40.5 5.75 30 5.75 17.25C5.75 14.996 6.53093 12.8117 7.95991 11.0686C9.3889 9.32551 11.3777 8.13136 13.5879 7.68932C15.7981 7.24728 18.0931 7.58466 20.0826 8.64405C22.0721 9.70344 23.6331 11.4194 24.5 13.5C25.3669 11.4194 26.9279 9.70344 28.9174 8.64405C30.9069 7.58466 33.2019 7.24728 35.4121 7.68932C37.6223 8.13136 39.6111 9.32551 41.0401 11.0686C42.4691 12.8117 43.25 14.996 43.25 17.25C43.25 30 24.5 40.5 24.5 40.5Z" stroke="#F3C395" stroke-width="2" stroke-linecap="round"/>
</svg>
