<svg xmlns="http://www.w3.org/2000/svg" xmlns:xlink="http://www.w3.org/1999/xlink" width="500" zoomAndPan="magnify" viewBox="0 0 375 374.999991" height="500" preserveAspectRatio="xMidYMid meet" version="1.0"><defs><g/><clipPath id="635e6a5de0"><path d="M 22.925781 213 L 352.175781 213 L 352.175781 277.371094 L 22.925781 277.371094 Z M 22.925781 213 " clip-rule="nonzero"/></clipPath><clipPath id="caf37d8136"><path d="M 212 85.371094 L 317 85.371094 L 317 211 L 212 211 Z M 212 85.371094 " clip-rule="nonzero"/></clipPath><clipPath id="fa6189098c"><path d="M 58 85.371094 L 163 85.371094 L 163 211 L 58 211 Z M 58 85.371094 " clip-rule="nonzero"/></clipPath></defs><rect x="-37.5" width="450" fill="#ffffff" y="-37.499999" height="449.999989" fill-opacity="1"/><rect x="-37.5" width="450" fill="#ffffff" y="-37.499999" height="449.999989" fill-opacity="1"/><rect x="-37.5" width="450" fill="#f7d794" y="-37.499999" height="449.999989" fill-opacity="1"/><path fill="#29290c" d="M 263.074219 276.65625 L 23.820312 276.65625 L 45.5625 245.546875 L 23.820312 214.367188 L 351.214844 214.367188 L 329.539062 245.546875 L 351.285156 276.65625 Z M 343.191406 272.476562 L 324.394531 245.546875 L 343.191406 218.613281 L 31.914062 218.613281 L 50.707031 245.546875 L 31.914062 272.476562 Z M 343.191406 272.476562 " fill-opacity="1" fill-rule="evenodd"/><g clip-path="url(#635e6a5de0)"><path fill="#29290c" d="M 352.175781 277.136719 L 22.925781 277.136719 L 45.015625 245.546875 L 22.925781 213.953125 L 352.175781 213.953125 L 330.089844 245.546875 Z M 24.710938 276.175781 L 350.394531 276.175781 L 328.992188 245.546875 L 350.394531 214.84375 L 24.710938 214.84375 L 46.113281 245.546875 Z M 344.082031 272.886719 L 31.019531 272.886719 L 50.160156 245.546875 L 31.019531 218.203125 L 344.082031 218.203125 L 325.011719 245.546875 Z M 32.804688 271.996094 L 342.300781 271.996094 L 323.847656 245.546875 L 342.300781 219.09375 L 32.804688 219.09375 L 51.257812 245.546875 Z M 32.804688 271.996094 " fill-opacity="1" fill-rule="nonzero"/></g><path fill="#29290c" d="M 164.914062 194.082031 L 192.902344 149.882812 C 194.753906 146.800781 196.195312 146.183594 199.828125 145.632812 C 202.917969 145.15625 213.136719 123.980469 214.921875 120.554688 L 214.578125 121.035156 L 204.835938 134.601562 C 204.152344 135.5625 203.191406 135.148438 203.878906 134.054688 L 212.246094 119.527344 L 201.957031 133.230469 C 201.683594 133.574219 201.40625 133.710938 201.132812 133.640625 C 200.925781 133.4375 200.859375 133.164062 201.066406 132.75 L 209.296875 117.949219 L 199.351562 131.65625 C 198.59375 132.683594 197.703125 132.136719 198.253906 131.175781 L 206.621094 116.921875 L 206.894531 116.441406 C 204.425781 119.59375 188.855469 138.027344 189.953125 140.632812 C 191.253906 143.648438 191.324219 145.019531 189.265625 148.03125 L 160.113281 191.617188 L 161.144531 192.164062 L 190.296875 148.582031 C 192.492188 145.429688 192.558594 143.648438 191.117188 140.289062 C 190.980469 139.535156 192.765625 136.726562 193.246094 136.039062 C 194.683594 133.847656 196.261719 131.65625 197.910156 129.53125 L 197.222656 130.628906 C 196.675781 131.585938 196.878906 132.410156 197.496094 132.890625 C 196.539062 134.191406 195.644531 135.492188 194.753906 136.792969 C 194.34375 137.480469 192.558594 140.289062 192.628906 141.042969 C 193.3125 142.6875 193.726562 143.921875 193.589844 145.15625 L 162.582031 192.847656 Z M 164.914062 194.082031 " fill-opacity="1" fill-rule="evenodd"/><path fill="#29290c" d="M 172.390625 145.496094 C 169.101562 144.265625 165.671875 141.933594 163.40625 137.480469 C 158.332031 127.339844 159.703125 120.210938 164.160156 117.882812 C 168.6875 115.621094 176.234375 118.085938 183.640625 127.132812 C 186.933594 131.105469 187.414062 134.945312 187.003906 138.027344 C 186.386719 142.140625 182.679688 143.03125 186.316406 148.308594 L 187.070312 149.335938 L 186.589844 150.089844 L 185.632812 148.71875 C 184.257812 146.664062 183.367188 144.675781 184.191406 142.34375 C 184.808594 140.699219 185.769531 139.535156 186.042969 137.753906 C 186.589844 133.984375 185.355469 130.558594 182.957031 127.542969 C 180.28125 124.324219 176.644531 120.828125 172.53125 119.046875 C 170.265625 118.019531 167.316406 117.402344 164.984375 118.636719 C 164.914062 118.703125 164.847656 118.703125 164.777344 118.773438 L 165.054688 119.183594 C 166.835938 119.046875 168.757812 119.527344 170.335938 120.210938 C 174.449219 121.992188 178.085938 125.488281 180.691406 128.777344 C 183.160156 131.792969 184.394531 135.21875 183.777344 138.917969 C 183.503906 140.769531 182.542969 141.867188 181.925781 143.511719 C 181.789062 143.851562 181.925781 144.195312 181.859375 144.539062 L 185.972656 150.84375 L 184.535156 152.96875 L 182.679688 150.089844 C 179.390625 144.675781 176.714844 147.074219 172.390625 145.496094 Z M 190.914062 155.160156 L 214.921875 191.066406 L 214.167969 191.410156 L 190.433594 155.84375 Z M 189.882812 156.804688 L 212.863281 192.09375 L 210.1875 193.464844 L 188.445312 159.066406 Z M 189.882812 156.804688 " fill-opacity="1" fill-rule="evenodd"/><g clip-path="url(#caf37d8136)"><path fill="#29290c" d="M 292.570312 210.046875 C 293.597656 158.039062 260.878906 112.195312 212.792969 101.710938 C 213.960938 101.847656 215.058594 102.050781 216.15625 102.257812 C 220.546875 103.078125 224.933594 104.175781 229.050781 105.546875 C 226.101562 104.175781 223.632812 100.957031 221.09375 96.296875 C 219.722656 93.625 218.214844 86.429688 218.214844 86.429688 C 218.214844 86.429688 225.210938 89.71875 231.792969 94.035156 C 236.597656 97.1875 235.566406 103.078125 233.234375 105.890625 C 232.550781 106.710938 223.976562 95.816406 223.976562 95.816406 C 223.976562 95.816406 228.914062 103.148438 232.410156 106.710938 C 235.773438 107.945312 239.132812 109.453125 242.289062 111.027344 C 239.886719 109.042969 237.351562 105.890625 236.800781 101.09375 C 235.636719 89.785156 239.132812 85.605469 239.132812 85.605469 C 239.132812 85.605469 242.152344 95.269531 247.914062 100.820312 C 252.03125 104.792969 250.039062 110.34375 247.296875 112.742188 C 246.472656 113.496094 239.890625 101.160156 239.890625 101.160156 C 239.890625 101.160156 243.25 108.769531 246.0625 113.015625 C 249.699219 115.070312 253.195312 117.332031 256.488281 119.800781 C 254.363281 117.46875 252.304688 113.769531 252.578125 108.769531 C 253.265625 97.460938 257.378906 93.898438 257.378906 93.898438 C 257.378906 93.898438 258.753906 103.972656 263.417969 110.414062 C 266.777344 115.003906 263.898438 120.144531 260.742188 122.0625 C 259.78125 122.609375 255.460938 109.382812 255.460938 109.382812 C 255.460938 109.382812 257.515625 117.539062 259.507812 122.128906 C 263.074219 125.007812 266.503906 128.160156 269.660156 131.585938 C 267.804688 128.914062 265.953125 124.597656 267.1875 119.253906 C 269.796875 108.21875 274.460938 105.476562 274.460938 105.476562 C 274.460938 105.476562 274.046875 115.621094 277.546875 122.746094 C 280.085938 127.886719 276.3125 132.476562 272.949219 133.78125 C 271.921875 134.191406 269.933594 120.347656 269.933594 120.347656 C 269.933594 120.347656 270.550781 129.050781 271.785156 133.917969 C 275.96875 138.714844 279.808594 143.851562 283.101562 149.335938 C 285.09375 152.691406 287.011719 156.941406 288.796875 161.804688 C 288.316406 158.792969 288.523438 154.953125 291.058594 151.117188 C 297.234375 141.589844 302.582031 140.632812 302.582031 140.632812 C 302.582031 140.632812 298.742188 150.089844 299.566406 157.96875 C 300.25 163.65625 295.105469 166.671875 291.472656 166.742188 C 290.375 166.808594 293.253906 153.105469 293.253906 153.105469 C 293.253906 153.105469 290.855469 161.53125 290.375 166.601562 C 291.953125 171.675781 293.253906 177.15625 294.285156 182.707031 C 294.285156 179.625 295.175781 175.785156 298.332031 172.429688 C 306.082031 164.136719 311.5 164.066406 311.5 164.066406 C 311.5 164.066406 306.082031 172.632812 305.601562 180.652344 C 305.257812 186.40625 299.703125 188.464844 296.136719 187.847656 C 294.96875 187.710938 300.183594 174.691406 300.183594 174.691406 C 300.183594 174.691406 296.410156 182.5 295.039062 187.367188 C 295.792969 192.710938 296.203125 198.125 296.203125 203.265625 C 296.683594 200.179688 298.195312 196.34375 302.035156 193.535156 C 311.089844 186.679688 316.4375 187.640625 316.4375 187.640625 C 316.4375 187.640625 309.648438 195.179688 307.796875 202.921875 C 306.425781 208.542969 300.664062 209.570312 297.234375 208.335938 C 296.136719 207.992188 303.476562 196.070312 303.476562 196.070312 C 303.476562 196.070312 298.261719 203.265625 296.136719 207.855469 L 296.136719 207.789062 C 296.066406 208.542969 296.066406 209.226562 296 209.980469 L 292.570312 209.980469 Z M 283.855469 135.492188 C 283.855469 135.492188 282.898438 144.332031 283.308594 149.335938 C 281.664062 147.140625 278.300781 141.113281 281.320312 133.917969 C 285.777344 123.433594 290.855469 121.582031 290.855469 121.582031 C 290.855469 121.582031 288.660156 131.519531 290.921875 139.125 C 292.570312 144.675781 288.042969 148.511719 284.476562 149.199219 C 283.445312 149.402344 283.855469 135.492188 283.855469 135.492188 Z M 283.855469 135.492188 " fill-opacity="1" fill-rule="evenodd"/></g><g clip-path="url(#fa6189098c)"><path fill="#29290c" d="M 82.535156 210.046875 C 81.503906 158.039062 114.226562 112.195312 162.308594 101.710938 C 161.210938 101.847656 160.046875 102.050781 158.949219 102.257812 C 154.558594 103.078125 150.167969 104.175781 146.050781 105.546875 C 149.003906 104.175781 151.472656 100.957031 154.007812 96.296875 C 155.382812 93.625 156.890625 86.429688 156.890625 86.429688 C 156.890625 86.429688 149.824219 89.71875 143.238281 94.035156 C 138.4375 97.1875 139.535156 103.078125 141.800781 105.890625 C 142.484375 106.710938 151.058594 95.816406 151.058594 95.816406 C 151.058594 95.816406 146.121094 103.148438 142.621094 106.710938 C 139.261719 107.945312 135.902344 109.453125 132.746094 111.027344 C 135.144531 109.042969 137.683594 105.890625 138.234375 101.09375 C 139.46875 89.785156 135.96875 85.605469 135.96875 85.605469 C 135.96875 85.605469 132.949219 95.269531 127.1875 100.820312 C 123.074219 104.792969 125.0625 110.34375 127.875 112.742188 C 128.765625 113.496094 135.214844 101.160156 135.214844 101.160156 C 135.214844 101.160156 131.855469 108.769531 129.109375 113.015625 C 125.472656 115.070312 121.976562 117.332031 118.613281 119.800781 C 120.742188 117.46875 122.800781 113.769531 122.523438 108.769531 C 121.839844 97.460938 117.722656 93.898438 117.722656 93.898438 C 117.722656 93.898438 116.421875 103.972656 111.6875 110.414062 C 108.324219 115.003906 111.277344 120.144531 114.363281 122.0625 C 115.324219 122.609375 119.644531 109.382812 119.644531 109.382812 C 119.644531 109.382812 117.65625 117.539062 115.597656 122.128906 C 112.03125 125.007812 108.667969 128.160156 105.445312 131.585938 C 107.367188 128.914062 109.148438 124.597656 107.914062 119.253906 C 105.308594 108.21875 100.644531 105.476562 100.644531 105.476562 C 100.644531 105.476562 101.054688 115.621094 97.558594 122.746094 C 95.019531 127.886719 98.792969 132.476562 102.222656 133.78125 C 103.320312 134.191406 105.238281 120.347656 105.238281 120.347656 C 105.238281 120.347656 104.691406 129.050781 103.386719 133.917969 C 99.203125 138.714844 95.429688 143.851562 92.070312 149.335938 C 90.078125 152.691406 88.160156 156.941406 86.445312 161.804688 C 86.925781 158.792969 86.71875 154.953125 84.179688 151.117188 C 77.9375 141.589844 72.589844 140.632812 72.589844 140.632812 C 72.589844 140.632812 76.429688 150.019531 75.539062 157.96875 C 74.851562 163.65625 79.996094 166.671875 83.632812 166.742188 C 84.730469 166.808594 81.917969 153.105469 81.917969 153.105469 C 81.917969 153.105469 84.316406 161.53125 84.796875 166.601562 C 83.21875 171.675781 81.917969 177.15625 80.957031 182.707031 C 80.886719 179.625 80.066406 175.785156 76.839844 172.429688 C 69.089844 164.136719 63.671875 164.066406 63.671875 164.066406 C 63.671875 164.066406 69.089844 172.632812 69.570312 180.652344 C 69.914062 186.40625 75.46875 188.464844 79.035156 187.847656 C 80.203125 187.710938 75.058594 174.691406 75.058594 174.691406 C 75.058594 174.691406 78.832031 182.5 80.132812 187.367188 C 79.378906 192.710938 78.96875 198.125 78.96875 203.265625 C 78.488281 200.179688 76.980469 196.34375 73.136719 193.535156 C 64.082031 186.679688 58.734375 187.640625 58.734375 187.640625 C 58.734375 187.640625 65.59375 195.179688 67.375 202.921875 C 68.746094 208.542969 74.507812 209.570312 77.9375 208.335938 C 79.035156 207.992188 71.695312 196.070312 71.695312 196.070312 C 71.695312 196.070312 76.910156 203.265625 79.035156 207.855469 L 79.035156 207.789062 C 79.105469 208.542969 79.105469 209.226562 79.171875 209.980469 L 82.535156 209.980469 Z M 91.246094 135.492188 C 91.246094 135.492188 92.207031 144.332031 91.792969 149.335938 C 93.441406 147.140625 96.871094 141.113281 93.785156 133.917969 C 89.257812 123.433594 84.25 121.582031 84.25 121.582031 C 84.25 121.582031 86.445312 131.519531 84.179688 139.125 C 82.601562 144.675781 87.0625 148.511719 90.628906 149.199219 C 91.726562 149.402344 91.246094 135.492188 91.246094 135.492188 Z M 91.246094 135.492188 " fill-opacity="1" fill-rule="evenodd"/></g><path fill="#29290c" d="M 308.140625 235.265625 L 309.648438 239.242188 L 312.941406 236.566406 L 312.1875 240.75 L 316.371094 240.0625 L 313.695312 243.351562 L 317.675781 244.859375 L 313.695312 246.367188 L 316.371094 249.65625 L 312.1875 248.972656 L 312.941406 253.082031 L 309.648438 250.410156 L 308.140625 254.386719 L 306.628906 250.410156 L 303.335938 253.082031 L 304.023438 248.972656 L 299.839844 249.65625 L 302.515625 246.367188 L 298.535156 244.859375 L 302.515625 243.351562 L 299.839844 240.0625 L 304.023438 240.75 L 303.335938 236.566406 L 306.628906 239.242188 Z M 308.140625 235.265625 " fill-opacity="1" fill-rule="evenodd"/><path fill="#29290c" d="M 66.964844 235.265625 L 68.472656 239.242188 L 71.765625 236.566406 L 71.078125 240.75 L 75.265625 240.0625 L 72.589844 243.351562 L 76.566406 244.859375 L 72.589844 246.367188 L 75.265625 249.65625 L 71.078125 248.972656 L 71.765625 253.082031 L 68.472656 250.410156 L 66.964844 254.386719 L 65.523438 250.410156 L 62.230469 253.082031 L 62.917969 248.972656 L 58.734375 249.65625 L 61.40625 246.367188 L 57.429688 244.859375 L 61.40625 243.351562 L 58.734375 240.0625 L 62.917969 240.75 L 62.230469 236.566406 L 65.523438 239.242188 Z M 66.964844 235.265625 " fill-opacity="1" fill-rule="evenodd"/><g fill="#29290c" fill-opacity="1"><g transform="translate(142.727445, 252.169092)"><g><path d="M 8.625 0.4375 C 7.050781 0.4375 5.519531 0.257812 4.03125 -0.09375 C 2.539062 -0.445312 1.316406 -0.921875 0.359375 -1.515625 L 2.40625 -6.1875 C 3.3125 -5.65625 4.320312 -5.234375 5.4375 -4.921875 C 6.5625 -4.609375 7.640625 -4.453125 8.671875 -4.453125 C 9.554688 -4.453125 10.1875 -4.535156 10.5625 -4.703125 C 10.945312 -4.878906 11.140625 -5.132812 11.140625 -5.46875 C 11.140625 -5.875 10.890625 -6.175781 10.390625 -6.375 C 9.898438 -6.570312 9.082031 -6.785156 7.9375 -7.015625 C 6.476562 -7.328125 5.257812 -7.660156 4.28125 -8.015625 C 3.300781 -8.367188 2.453125 -8.945312 1.734375 -9.75 C 1.015625 -10.550781 0.65625 -11.640625 0.65625 -13.015625 C 0.65625 -14.203125 0.988281 -15.285156 1.65625 -16.265625 C 2.320312 -17.242188 3.316406 -18.007812 4.640625 -18.5625 C 5.972656 -19.125 7.585938 -19.40625 9.484375 -19.40625 C 10.785156 -19.40625 12.0625 -19.265625 13.3125 -18.984375 C 14.570312 -18.703125 15.679688 -18.289062 16.640625 -17.75 L 14.71875 -13.125 C 12.851562 -14.0625 11.09375 -14.53125 9.4375 -14.53125 C 7.789062 -14.53125 6.96875 -14.132812 6.96875 -13.34375 C 6.96875 -12.957031 7.210938 -12.671875 7.703125 -12.484375 C 8.191406 -12.296875 8.992188 -12.09375 10.109375 -11.875 C 11.554688 -11.601562 12.773438 -11.289062 13.765625 -10.9375 C 14.765625 -10.582031 15.628906 -10.007812 16.359375 -9.21875 C 17.085938 -8.425781 17.453125 -7.34375 17.453125 -5.96875 C 17.453125 -4.769531 17.117188 -3.6875 16.453125 -2.71875 C 15.785156 -1.757812 14.785156 -0.992188 13.453125 -0.421875 C 12.128906 0.148438 10.519531 0.4375 8.625 0.4375 Z M 8.625 0.4375 "/></g></g></g><g fill="#29290c" fill-opacity="1"><g transform="translate(168.268059, 252.169092)"><g><path d="M 21.828125 -18.984375 L 13.796875 0 L 7.515625 0 L -0.515625 -18.984375 L 6.375 -18.984375 L 10.890625 -7.890625 L 15.53125 -18.984375 Z M 21.828125 -18.984375 "/></g></g></g><g fill="#29290c" fill-opacity="1"><g transform="translate(197.306251, 252.169092)"><g><path d="M 9.671875 -4.765625 L 7.9375 -4.765625 L 7.9375 0 L 1.546875 0 L 1.546875 -18.984375 L 10.6875 -18.984375 C 12.4375 -18.984375 13.960938 -18.691406 15.265625 -18.109375 C 16.566406 -17.523438 17.566406 -16.691406 18.265625 -15.609375 C 18.972656 -14.523438 19.328125 -13.257812 19.328125 -11.8125 C 19.328125 -10.457031 19.019531 -9.273438 18.40625 -8.265625 C 17.789062 -7.253906 16.90625 -6.453125 15.75 -5.859375 L 19.734375 0 L 12.90625 0 Z M 12.875 -11.8125 C 12.875 -12.519531 12.65625 -13.066406 12.21875 -13.453125 C 11.789062 -13.847656 11.144531 -14.046875 10.28125 -14.046875 L 7.9375 -14.046875 L 7.9375 -9.59375 L 10.28125 -9.59375 C 11.144531 -9.59375 11.789062 -9.785156 12.21875 -10.171875 C 12.65625 -10.566406 12.875 -11.113281 12.875 -11.8125 Z M 12.875 -11.8125 "/></g></g></g><g fill="#29290c" fill-opacity="1"><g transform="translate(80.972986, 297.606128)"><g><path d="M 8.296875 -2.640625 L 2.703125 -2.640625 L 1.53125 0 L -0.015625 0 L 4.765625 -10.546875 L 6.25 -10.546875 L 11.046875 0 L 9.453125 0 Z M 7.765625 -3.84375 L 5.5 -9 L 3.21875 -3.84375 Z M 7.765625 -3.84375 "/></g></g></g><g fill="#29290c" fill-opacity="1"><g transform="translate(93.500963, 297.606128)"><g><path d="M 3.65625 0.09375 C 3.007812 0.09375 2.382812 0.00390625 1.78125 -0.171875 C 1.175781 -0.347656 0.703125 -0.570312 0.359375 -0.84375 L 0.96875 -1.984375 C 1.3125 -1.734375 1.734375 -1.53125 2.234375 -1.375 C 2.742188 -1.226562 3.253906 -1.15625 3.765625 -1.15625 C 5.023438 -1.15625 5.65625 -1.519531 5.65625 -2.25 C 5.65625 -2.488281 5.570312 -2.675781 5.40625 -2.8125 C 5.238281 -2.957031 5.023438 -3.0625 4.765625 -3.125 C 4.515625 -3.1875 4.148438 -3.257812 3.671875 -3.34375 C 3.035156 -3.445312 2.507812 -3.5625 2.09375 -3.6875 C 1.6875 -3.820312 1.335938 -4.039062 1.046875 -4.34375 C 0.765625 -4.65625 0.625 -5.09375 0.625 -5.65625 C 0.625 -6.382812 0.921875 -6.96875 1.515625 -7.40625 C 2.117188 -7.84375 2.929688 -8.0625 3.953125 -8.0625 C 4.484375 -8.0625 5.015625 -7.992188 5.546875 -7.859375 C 6.078125 -7.734375 6.515625 -7.554688 6.859375 -7.328125 L 6.234375 -6.1875 C 5.578125 -6.613281 4.8125 -6.828125 3.9375 -6.828125 C 3.320312 -6.828125 2.851562 -6.722656 2.53125 -6.515625 C 2.207031 -6.316406 2.046875 -6.050781 2.046875 -5.71875 C 2.046875 -5.457031 2.132812 -5.25 2.3125 -5.09375 C 2.5 -4.945312 2.722656 -4.835938 2.984375 -4.765625 C 3.253906 -4.703125 3.628906 -4.625 4.109375 -4.53125 C 4.753906 -4.425781 5.273438 -4.304688 5.671875 -4.171875 C 6.066406 -4.046875 6.40625 -3.832031 6.6875 -3.53125 C 6.96875 -3.238281 7.109375 -2.820312 7.109375 -2.28125 C 7.109375 -1.550781 6.796875 -0.972656 6.171875 -0.546875 C 5.554688 -0.117188 4.71875 0.09375 3.65625 0.09375 Z M 3.65625 0.09375 "/></g></g></g><g fill="#29290c" fill-opacity="1"><g transform="translate(102.550791, 297.606128)"><g><path d="M 1.375 -7.984375 L 2.8125 -7.984375 L 2.8125 0 L 1.375 0 Z M 2.09375 -9.515625 C 1.8125 -9.515625 1.578125 -9.601562 1.390625 -9.78125 C 1.203125 -9.96875 1.109375 -10.191406 1.109375 -10.453125 C 1.109375 -10.710938 1.203125 -10.9375 1.390625 -11.125 C 1.578125 -11.3125 1.8125 -11.40625 2.09375 -11.40625 C 2.375 -11.40625 2.601562 -11.316406 2.78125 -11.140625 C 2.96875 -10.960938 3.0625 -10.742188 3.0625 -10.484375 C 3.0625 -10.210938 2.96875 -9.984375 2.78125 -9.796875 C 2.601562 -9.609375 2.375 -9.515625 2.09375 -9.515625 Z M 2.09375 -9.515625 "/></g></g></g><g fill="#29290c" fill-opacity="1"><g transform="translate(108.257978, 297.606128)"><g><path d="M 4.28125 -8.0625 C 5.382812 -8.0625 6.226562 -7.789062 6.8125 -7.25 C 7.40625 -6.707031 7.703125 -5.894531 7.703125 -4.8125 L 7.703125 0 L 6.328125 0 L 6.328125 -1.046875 C 6.085938 -0.679688 5.742188 -0.398438 5.296875 -0.203125 C 4.847656 -0.00390625 4.316406 0.09375 3.703125 0.09375 C 2.804688 0.09375 2.085938 -0.117188 1.546875 -0.546875 C 1.015625 -0.984375 0.75 -1.554688 0.75 -2.265625 C 0.75 -2.960938 1.003906 -3.523438 1.515625 -3.953125 C 2.035156 -4.378906 2.851562 -4.59375 3.96875 -4.59375 L 6.25 -4.59375 L 6.25 -4.875 C 6.25 -5.5 6.066406 -5.976562 5.703125 -6.3125 C 5.347656 -6.644531 4.816406 -6.8125 4.109375 -6.8125 C 3.640625 -6.8125 3.175781 -6.734375 2.71875 -6.578125 C 2.269531 -6.421875 1.890625 -6.210938 1.578125 -5.953125 L 0.984375 -7.03125 C 1.390625 -7.363281 1.878906 -7.617188 2.453125 -7.796875 C 3.023438 -7.972656 3.632812 -8.0625 4.28125 -8.0625 Z M 3.953125 -1.03125 C 4.503906 -1.03125 4.976562 -1.148438 5.375 -1.390625 C 5.78125 -1.640625 6.070312 -1.988281 6.25 -2.4375 L 6.25 -3.5625 L 4.015625 -3.5625 C 2.796875 -3.5625 2.1875 -3.144531 2.1875 -2.3125 C 2.1875 -1.914062 2.34375 -1.601562 2.65625 -1.375 C 2.96875 -1.144531 3.398438 -1.03125 3.953125 -1.03125 Z M 3.953125 -1.03125 "/></g></g></g><g fill="#29290c" fill-opacity="1"><g transform="translate(118.768322, 297.606128)"><g><path d="M 5.640625 -8.0625 C 6.648438 -8.0625 7.453125 -7.765625 8.046875 -7.171875 C 8.648438 -6.585938 8.953125 -5.726562 8.953125 -4.59375 L 8.953125 0 L 7.5 0 L 7.5 -4.421875 C 7.5 -5.203125 7.3125 -5.785156 6.9375 -6.171875 C 6.570312 -6.566406 6.039062 -6.765625 5.34375 -6.765625 C 4.5625 -6.765625 3.941406 -6.535156 3.484375 -6.078125 C 3.035156 -5.617188 2.8125 -4.960938 2.8125 -4.109375 L 2.8125 0 L 1.375 0 L 1.375 -7.984375 L 2.75 -7.984375 L 2.75 -6.78125 C 3.039062 -7.1875 3.4375 -7.5 3.9375 -7.71875 C 4.4375 -7.945312 5.003906 -8.0625 5.640625 -8.0625 Z M 5.640625 -8.0625 "/></g></g></g><g fill="#29290c" fill-opacity="1"><g transform="translate(130.528393, 297.606128)"><g/></g></g><g fill="#29290c" fill-opacity="1"><g transform="translate(136.085006, 297.606128)"><g><path d="M 3.09375 -9.234375 L 3.09375 -5.5625 L 8.375 -5.5625 L 8.375 -4.265625 L 3.09375 -4.265625 L 3.09375 0 L 1.578125 0 L 1.578125 -10.546875 L 9.015625 -10.546875 L 9.015625 -9.234375 Z M 3.09375 -9.234375 "/></g></g></g><g fill="#29290c" fill-opacity="1"><g transform="translate(147.152467, 297.606128)"><g><path d="M 4.796875 0.09375 C 3.992188 0.09375 3.273438 -0.0820312 2.640625 -0.4375 C 2.015625 -0.789062 1.519531 -1.273438 1.15625 -1.890625 C 0.800781 -2.503906 0.625 -3.203125 0.625 -3.984375 C 0.625 -4.773438 0.800781 -5.476562 1.15625 -6.09375 C 1.519531 -6.707031 2.015625 -7.1875 2.640625 -7.53125 C 3.273438 -7.882812 3.992188 -8.0625 4.796875 -8.0625 C 5.585938 -8.0625 6.296875 -7.882812 6.921875 -7.53125 C 7.546875 -7.1875 8.035156 -6.707031 8.390625 -6.09375 C 8.753906 -5.476562 8.9375 -4.773438 8.9375 -3.984375 C 8.9375 -3.203125 8.753906 -2.503906 8.390625 -1.890625 C 8.035156 -1.273438 7.546875 -0.789062 6.921875 -0.4375 C 6.296875 -0.0820312 5.585938 0.09375 4.796875 0.09375 Z M 4.796875 -1.171875 C 5.304688 -1.171875 5.765625 -1.289062 6.171875 -1.53125 C 6.578125 -1.769531 6.894531 -2.097656 7.125 -2.515625 C 7.351562 -2.941406 7.46875 -3.429688 7.46875 -3.984375 C 7.46875 -4.535156 7.351562 -5.023438 7.125 -5.453125 C 6.894531 -5.878906 6.578125 -6.207031 6.171875 -6.4375 C 5.765625 -6.675781 5.304688 -6.796875 4.796875 -6.796875 C 4.273438 -6.796875 3.8125 -6.675781 3.40625 -6.4375 C 3 -6.207031 2.675781 -5.878906 2.4375 -5.453125 C 2.207031 -5.023438 2.09375 -4.535156 2.09375 -3.984375 C 2.09375 -3.429688 2.207031 -2.941406 2.4375 -2.515625 C 2.675781 -2.097656 3 -1.769531 3.40625 -1.53125 C 3.8125 -1.289062 4.273438 -1.171875 4.796875 -1.171875 Z M 4.796875 -1.171875 "/></g></g></g><g fill="#29290c" fill-opacity="1"><g transform="translate(158.219929, 297.606128)"><g><path d="M 4.796875 0.09375 C 3.992188 0.09375 3.273438 -0.0820312 2.640625 -0.4375 C 2.015625 -0.789062 1.519531 -1.273438 1.15625 -1.890625 C 0.800781 -2.503906 0.625 -3.203125 0.625 -3.984375 C 0.625 -4.773438 0.800781 -5.476562 1.15625 -6.09375 C 1.519531 -6.707031 2.015625 -7.1875 2.640625 -7.53125 C 3.273438 -7.882812 3.992188 -8.0625 4.796875 -8.0625 C 5.585938 -8.0625 6.296875 -7.882812 6.921875 -7.53125 C 7.546875 -7.1875 8.035156 -6.707031 8.390625 -6.09375 C 8.753906 -5.476562 8.9375 -4.773438 8.9375 -3.984375 C 8.9375 -3.203125 8.753906 -2.503906 8.390625 -1.890625 C 8.035156 -1.273438 7.546875 -0.789062 6.921875 -0.4375 C 6.296875 -0.0820312 5.585938 0.09375 4.796875 0.09375 Z M 4.796875 -1.171875 C 5.304688 -1.171875 5.765625 -1.289062 6.171875 -1.53125 C 6.578125 -1.769531 6.894531 -2.097656 7.125 -2.515625 C 7.351562 -2.941406 7.46875 -3.429688 7.46875 -3.984375 C 7.46875 -4.535156 7.351562 -5.023438 7.125 -5.453125 C 6.894531 -5.878906 6.578125 -6.207031 6.171875 -6.4375 C 5.765625 -6.675781 5.304688 -6.796875 4.796875 -6.796875 C 4.273438 -6.796875 3.8125 -6.675781 3.40625 -6.4375 C 3 -6.207031 2.675781 -5.878906 2.4375 -5.453125 C 2.207031 -5.023438 2.09375 -4.535156 2.09375 -3.984375 C 2.09375 -3.429688 2.207031 -2.941406 2.4375 -2.515625 C 2.675781 -2.097656 3 -1.769531 3.40625 -1.53125 C 3.8125 -1.289062 4.273438 -1.171875 4.796875 -1.171875 Z M 4.796875 -1.171875 "/></g></g></g><g fill="#29290c" fill-opacity="1"><g transform="translate(169.287395, 297.606128)"><g><path d="M 8.90625 -11.171875 L 8.90625 0 L 7.515625 0 L 7.515625 -1.265625 C 7.191406 -0.828125 6.785156 -0.488281 6.296875 -0.25 C 5.804688 -0.0195312 5.265625 0.09375 4.671875 0.09375 C 3.898438 0.09375 3.207031 -0.078125 2.59375 -0.421875 C 1.976562 -0.765625 1.492188 -1.242188 1.140625 -1.859375 C 0.796875 -2.472656 0.625 -3.179688 0.625 -3.984375 C 0.625 -4.796875 0.796875 -5.503906 1.140625 -6.109375 C 1.492188 -6.722656 1.976562 -7.203125 2.59375 -7.546875 C 3.207031 -7.890625 3.898438 -8.0625 4.671875 -8.0625 C 5.242188 -8.0625 5.769531 -7.953125 6.25 -7.734375 C 6.726562 -7.515625 7.128906 -7.195312 7.453125 -6.78125 L 7.453125 -11.171875 Z M 4.796875 -1.171875 C 5.296875 -1.171875 5.75 -1.289062 6.15625 -1.53125 C 6.570312 -1.769531 6.894531 -2.097656 7.125 -2.515625 C 7.351562 -2.941406 7.46875 -3.429688 7.46875 -3.984375 C 7.46875 -4.535156 7.351562 -5.023438 7.125 -5.453125 C 6.894531 -5.878906 6.570312 -6.207031 6.15625 -6.4375 C 5.75 -6.675781 5.296875 -6.796875 4.796875 -6.796875 C 4.273438 -6.796875 3.8125 -6.675781 3.40625 -6.4375 C 3 -6.207031 2.675781 -5.878906 2.4375 -5.453125 C 2.207031 -5.023438 2.09375 -4.535156 2.09375 -3.984375 C 2.09375 -3.429688 2.207031 -2.941406 2.4375 -2.515625 C 2.675781 -2.097656 3 -1.769531 3.40625 -1.53125 C 3.8125 -1.289062 4.273438 -1.171875 4.796875 -1.171875 Z M 4.796875 -1.171875 "/></g></g></g><g fill="#29290c" fill-opacity="1"><g transform="translate(181.062537, 297.606128)"><g/></g></g><g fill="#29290c" fill-opacity="1"><g transform="translate(186.619154, 297.606128)"><g><path d="M 8.625 0 L 6.359375 -3.234375 C 6.078125 -3.210938 5.851562 -3.203125 5.6875 -3.203125 L 3.09375 -3.203125 L 3.09375 0 L 1.578125 0 L 1.578125 -10.546875 L 5.6875 -10.546875 C 7.050781 -10.546875 8.125 -10.21875 8.90625 -9.5625 C 9.695312 -8.90625 10.09375 -8.007812 10.09375 -6.875 C 10.09375 -6.0625 9.890625 -5.367188 9.484375 -4.796875 C 9.085938 -4.222656 8.515625 -3.804688 7.765625 -3.546875 L 10.265625 0 Z M 5.65625 -4.484375 C 6.601562 -4.484375 7.328125 -4.6875 7.828125 -5.09375 C 8.328125 -5.507812 8.578125 -6.101562 8.578125 -6.875 C 8.578125 -7.632812 8.328125 -8.21875 7.828125 -8.625 C 7.328125 -9.03125 6.601562 -9.234375 5.65625 -9.234375 L 3.09375 -9.234375 L 3.09375 -4.484375 Z M 5.65625 -4.484375 "/></g></g></g><g fill="#29290c" fill-opacity="1"><g transform="translate(199.071857, 297.606128)"><g><path d="M 8.578125 -3.953125 C 8.578125 -3.835938 8.570312 -3.691406 8.5625 -3.515625 L 2.078125 -3.515625 C 2.171875 -2.804688 2.476562 -2.238281 3 -1.8125 C 3.53125 -1.382812 4.1875 -1.171875 4.96875 -1.171875 C 5.925781 -1.171875 6.695312 -1.492188 7.28125 -2.140625 L 8.078125 -1.203125 C 7.710938 -0.785156 7.257812 -0.460938 6.71875 -0.234375 C 6.1875 -0.015625 5.585938 0.09375 4.921875 0.09375 C 4.078125 0.09375 3.328125 -0.078125 2.671875 -0.421875 C 2.023438 -0.773438 1.519531 -1.257812 1.15625 -1.875 C 0.800781 -2.5 0.625 -3.203125 0.625 -3.984375 C 0.625 -4.765625 0.796875 -5.460938 1.140625 -6.078125 C 1.492188 -6.703125 1.972656 -7.1875 2.578125 -7.53125 C 3.191406 -7.882812 3.878906 -8.0625 4.640625 -8.0625 C 5.398438 -8.0625 6.078125 -7.882812 6.671875 -7.53125 C 7.273438 -7.1875 7.742188 -6.703125 8.078125 -6.078125 C 8.410156 -5.460938 8.578125 -4.753906 8.578125 -3.953125 Z M 4.640625 -6.84375 C 3.941406 -6.84375 3.359375 -6.628906 2.890625 -6.203125 C 2.429688 -5.785156 2.160156 -5.234375 2.078125 -4.546875 L 7.203125 -4.546875 C 7.117188 -5.222656 6.84375 -5.773438 6.375 -6.203125 C 5.90625 -6.628906 5.328125 -6.84375 4.640625 -6.84375 Z M 4.640625 -6.84375 "/></g></g></g><g fill="#29290c" fill-opacity="1"><g transform="translate(209.793009, 297.606128)"><g><path d="M 3.65625 0.09375 C 3.007812 0.09375 2.382812 0.00390625 1.78125 -0.171875 C 1.175781 -0.347656 0.703125 -0.570312 0.359375 -0.84375 L 0.96875 -1.984375 C 1.3125 -1.734375 1.734375 -1.53125 2.234375 -1.375 C 2.742188 -1.226562 3.253906 -1.15625 3.765625 -1.15625 C 5.023438 -1.15625 5.65625 -1.519531 5.65625 -2.25 C 5.65625 -2.488281 5.570312 -2.675781 5.40625 -2.8125 C 5.238281 -2.957031 5.023438 -3.0625 4.765625 -3.125 C 4.515625 -3.1875 4.148438 -3.257812 3.671875 -3.34375 C 3.035156 -3.445312 2.507812 -3.5625 2.09375 -3.6875 C 1.6875 -3.820312 1.335938 -4.039062 1.046875 -4.34375 C 0.765625 -4.65625 0.625 -5.09375 0.625 -5.65625 C 0.625 -6.382812 0.921875 -6.96875 1.515625 -7.40625 C 2.117188 -7.84375 2.929688 -8.0625 3.953125 -8.0625 C 4.484375 -8.0625 5.015625 -7.992188 5.546875 -7.859375 C 6.078125 -7.734375 6.515625 -7.554688 6.859375 -7.328125 L 6.234375 -6.1875 C 5.578125 -6.613281 4.8125 -6.828125 3.9375 -6.828125 C 3.320312 -6.828125 2.851562 -6.722656 2.53125 -6.515625 C 2.207031 -6.316406 2.046875 -6.050781 2.046875 -5.71875 C 2.046875 -5.457031 2.132812 -5.25 2.3125 -5.09375 C 2.5 -4.945312 2.722656 -4.835938 2.984375 -4.765625 C 3.253906 -4.703125 3.628906 -4.625 4.109375 -4.53125 C 4.753906 -4.425781 5.273438 -4.304688 5.671875 -4.171875 C 6.066406 -4.046875 6.40625 -3.832031 6.6875 -3.53125 C 6.96875 -3.238281 7.109375 -2.820312 7.109375 -2.28125 C 7.109375 -1.550781 6.796875 -0.972656 6.171875 -0.546875 C 5.554688 -0.117188 4.71875 0.09375 3.65625 0.09375 Z M 3.65625 0.09375 "/></g></g></g><g fill="#29290c" fill-opacity="1"><g transform="translate(218.842841, 297.606128)"><g><path d="M 5.859375 -0.46875 C 5.648438 -0.289062 5.390625 -0.148438 5.078125 -0.046875 C 4.765625 0.046875 4.441406 0.09375 4.109375 0.09375 C 3.304688 0.09375 2.679688 -0.117188 2.234375 -0.546875 C 1.796875 -0.984375 1.578125 -1.601562 1.578125 -2.40625 L 1.578125 -6.796875 L 0.21875 -6.796875 L 0.21875 -7.984375 L 1.578125 -7.984375 L 1.578125 -9.734375 L 3.03125 -9.734375 L 3.03125 -7.984375 L 5.3125 -7.984375 L 5.3125 -6.796875 L 3.03125 -6.796875 L 3.03125 -2.46875 C 3.03125 -2.039062 3.132812 -1.707031 3.34375 -1.46875 C 3.5625 -1.238281 3.875 -1.125 4.28125 -1.125 C 4.71875 -1.125 5.09375 -1.25 5.40625 -1.5 Z M 5.859375 -0.46875 "/></g></g></g><g fill="#29290c" fill-opacity="1"><g transform="translate(226.582716, 297.606128)"><g><path d="M 4.28125 -8.0625 C 5.382812 -8.0625 6.226562 -7.789062 6.8125 -7.25 C 7.40625 -6.707031 7.703125 -5.894531 7.703125 -4.8125 L 7.703125 0 L 6.328125 0 L 6.328125 -1.046875 C 6.085938 -0.679688 5.742188 -0.398438 5.296875 -0.203125 C 4.847656 -0.00390625 4.316406 0.09375 3.703125 0.09375 C 2.804688 0.09375 2.085938 -0.117188 1.546875 -0.546875 C 1.015625 -0.984375 0.75 -1.554688 0.75 -2.265625 C 0.75 -2.960938 1.003906 -3.523438 1.515625 -3.953125 C 2.035156 -4.378906 2.851562 -4.59375 3.96875 -4.59375 L 6.25 -4.59375 L 6.25 -4.875 C 6.25 -5.5 6.066406 -5.976562 5.703125 -6.3125 C 5.347656 -6.644531 4.816406 -6.8125 4.109375 -6.8125 C 3.640625 -6.8125 3.175781 -6.734375 2.71875 -6.578125 C 2.269531 -6.421875 1.890625 -6.210938 1.578125 -5.953125 L 0.984375 -7.03125 C 1.390625 -7.363281 1.878906 -7.617188 2.453125 -7.796875 C 3.023438 -7.972656 3.632812 -8.0625 4.28125 -8.0625 Z M 3.953125 -1.03125 C 4.503906 -1.03125 4.976562 -1.148438 5.375 -1.390625 C 5.78125 -1.640625 6.070312 -1.988281 6.25 -2.4375 L 6.25 -3.5625 L 4.015625 -3.5625 C 2.796875 -3.5625 2.1875 -3.144531 2.1875 -2.3125 C 2.1875 -1.914062 2.34375 -1.601562 2.65625 -1.375 C 2.96875 -1.144531 3.398438 -1.03125 3.953125 -1.03125 Z M 3.953125 -1.03125 "/></g></g></g><g fill="#29290c" fill-opacity="1"><g transform="translate(237.093063, 297.606128)"><g><path d="M 8.8125 -7.984375 L 8.8125 0 L 7.4375 0 L 7.4375 -1.203125 C 7.144531 -0.796875 6.757812 -0.476562 6.28125 -0.25 C 5.8125 -0.0195312 5.296875 0.09375 4.734375 0.09375 C 3.671875 0.09375 2.832031 -0.195312 2.21875 -0.78125 C 1.601562 -1.375 1.296875 -2.242188 1.296875 -3.390625 L 1.296875 -7.984375 L 2.734375 -7.984375 L 2.734375 -3.5625 C 2.734375 -2.78125 2.921875 -2.191406 3.296875 -1.796875 C 3.671875 -1.398438 4.203125 -1.203125 4.890625 -1.203125 C 5.660156 -1.203125 6.265625 -1.429688 6.703125 -1.890625 C 7.140625 -2.359375 7.359375 -3.015625 7.359375 -3.859375 L 7.359375 -7.984375 Z M 8.8125 -7.984375 "/></g></g></g><g fill="#29290c" fill-opacity="1"><g transform="translate(248.792909, 297.606128)"><g><path d="M 2.75 -6.640625 C 3.007812 -7.097656 3.382812 -7.445312 3.875 -7.6875 C 4.363281 -7.9375 4.957031 -8.0625 5.65625 -8.0625 L 5.65625 -6.65625 C 5.582031 -6.664062 5.472656 -6.671875 5.328125 -6.671875 C 4.546875 -6.671875 3.929688 -6.4375 3.484375 -5.96875 C 3.035156 -5.5 2.8125 -4.832031 2.8125 -3.96875 L 2.8125 0 L 1.375 0 L 1.375 -7.984375 L 2.75 -7.984375 Z M 2.75 -6.640625 "/></g></g></g><g fill="#29290c" fill-opacity="1"><g transform="translate(256.472554, 297.606128)"><g><path d="M 4.28125 -8.0625 C 5.382812 -8.0625 6.226562 -7.789062 6.8125 -7.25 C 7.40625 -6.707031 7.703125 -5.894531 7.703125 -4.8125 L 7.703125 0 L 6.328125 0 L 6.328125 -1.046875 C 6.085938 -0.679688 5.742188 -0.398438 5.296875 -0.203125 C 4.847656 -0.00390625 4.316406 0.09375 3.703125 0.09375 C 2.804688 0.09375 2.085938 -0.117188 1.546875 -0.546875 C 1.015625 -0.984375 0.75 -1.554688 0.75 -2.265625 C 0.75 -2.960938 1.003906 -3.523438 1.515625 -3.953125 C 2.035156 -4.378906 2.851562 -4.59375 3.96875 -4.59375 L 6.25 -4.59375 L 6.25 -4.875 C 6.25 -5.5 6.066406 -5.976562 5.703125 -6.3125 C 5.347656 -6.644531 4.816406 -6.8125 4.109375 -6.8125 C 3.640625 -6.8125 3.175781 -6.734375 2.71875 -6.578125 C 2.269531 -6.421875 1.890625 -6.210938 1.578125 -5.953125 L 0.984375 -7.03125 C 1.390625 -7.363281 1.878906 -7.617188 2.453125 -7.796875 C 3.023438 -7.972656 3.632812 -8.0625 4.28125 -8.0625 Z M 3.953125 -1.03125 C 4.503906 -1.03125 4.976562 -1.148438 5.375 -1.390625 C 5.78125 -1.640625 6.070312 -1.988281 6.25 -2.4375 L 6.25 -3.5625 L 4.015625 -3.5625 C 2.796875 -3.5625 2.1875 -3.144531 2.1875 -2.3125 C 2.1875 -1.914062 2.34375 -1.601562 2.65625 -1.375 C 2.96875 -1.144531 3.398438 -1.03125 3.953125 -1.03125 Z M 3.953125 -1.03125 "/></g></g></g><g fill="#29290c" fill-opacity="1"><g transform="translate(266.982901, 297.606128)"><g><path d="M 5.640625 -8.0625 C 6.648438 -8.0625 7.453125 -7.765625 8.046875 -7.171875 C 8.648438 -6.585938 8.953125 -5.726562 8.953125 -4.59375 L 8.953125 0 L 7.5 0 L 7.5 -4.421875 C 7.5 -5.203125 7.3125 -5.785156 6.9375 -6.171875 C 6.570312 -6.566406 6.039062 -6.765625 5.34375 -6.765625 C 4.5625 -6.765625 3.941406 -6.535156 3.484375 -6.078125 C 3.035156 -5.617188 2.8125 -4.960938 2.8125 -4.109375 L 2.8125 0 L 1.375 0 L 1.375 -7.984375 L 2.75 -7.984375 L 2.75 -6.78125 C 3.039062 -7.1875 3.4375 -7.5 3.9375 -7.71875 C 4.4375 -7.945312 5.003906 -8.0625 5.640625 -8.0625 Z M 5.640625 -8.0625 "/></g></g></g><g fill="#29290c" fill-opacity="1"><g transform="translate(278.742977, 297.606128)"><g><path d="M 5.859375 -0.46875 C 5.648438 -0.289062 5.390625 -0.148438 5.078125 -0.046875 C 4.765625 0.046875 4.441406 0.09375 4.109375 0.09375 C 3.304688 0.09375 2.679688 -0.117188 2.234375 -0.546875 C 1.796875 -0.984375 1.578125 -1.601562 1.578125 -2.40625 L 1.578125 -6.796875 L 0.21875 -6.796875 L 0.21875 -7.984375 L 1.578125 -7.984375 L 1.578125 -9.734375 L 3.03125 -9.734375 L 3.03125 -7.984375 L 5.3125 -7.984375 L 5.3125 -6.796875 L 3.03125 -6.796875 L 3.03125 -2.46875 C 3.03125 -2.039062 3.132812 -1.707031 3.34375 -1.46875 C 3.5625 -1.238281 3.875 -1.125 4.28125 -1.125 C 4.71875 -1.125 5.09375 -1.25 5.40625 -1.5 Z M 5.859375 -0.46875 "/></g></g></g></svg>